<?xml version="1.0" encoding="UTF-8"?>
<!DOCTYPE svg PUBLIC "-//W3C//DTD SVG 1.1//EN" "http://www.w3.org/Graphics/SVG/1.1/DTD/svg11.dtd">
<!-- Creator: CorelDRAW X8 -->
<svg xmlns="http://www.w3.org/2000/svg" xml:space="preserve" width="210mm" height="297mm" version="1.1" style="shape-rendering:geometricPrecision; text-rendering:geometricPrecision; image-rendering:optimizeQuality; fill-rule:evenodd; clip-rule:evenodd"
viewBox="0 0 21000 29700"
 xmlns:xlink="http://www.w3.org/1999/xlink">
 <defs>
  <style type="text/css">
   <![CDATA[
    .fil1 {fill:#FEFEFE}
    .fil0 {fill:black}
    .fil6 {fill:#008EE9}
    .fil7 {fill:#00E5A5}
    .fil4 {fill:#AB35E2}
    .fil3 {fill:#F055D5}
    .fil5 {fill:#FF6943}
    .fil2 {fill:#FFAD44}
   ]]>
  </style>
 </defs>
 <g id="Capa_x0020_1">
  <metadata id="CorelCorpID_0Corel-Layer"/>
  <rect class="fil0" x="5895" y="7504" width="9999" height="9999"/>
  <ellipse class="fil1" cx="10903" cy="12534" rx="5035" ry="5076"/>
  <path class="fil0" d="M6662 13636l1303 -774c-113,-323 -175,-671 -175,-1034 0,-1710 1366,-3096 3051,-3096 1686,0 3052,1386 3052,3096 0,414 -80,808 -225,1169l1337 637 -431 732 -1258 -727c-157,221 -342,420 -550,591l731 1232 -741 423 -691 -1221c-260,116 -540,196 -832,234l19 1411 -819 4 2 -1417c-284,-38 -555,-116 -809,-228l-701 1215 -734 -413 726 -1240c-207,-171 -392,-369 -549,-588l-1266 744 -440 -750zm4206 -4110c1262,0 2284,1038 2284,2318 0,1279 -1022,2317 -2284,2317 -1262,0 -2284,-1038 -2284,-2317 0,-1280 1022,-2318 2284,-2318z"/>
  <g id="_2357761337264">
   <path class="fil2" d="M9197 12316c1,1 1246,19 1276,13 2,-10 -856,-1523 -863,-1528 -459,454 -525,1044 -413,1515z"/>
   <path class="fil3" d="M11995 13262l-144 -258c-49,-87 -101,-174 -150,-260 -53,-94 -97,-171 -149,-263 -29,-53 -123,-237 -160,-261 -32,17 -71,100 -100,151l-285 495c-135,226 -286,513 -420,732 -25,40 -38,46 23,56 486,81 1045,-81 1385,-392z"/>
   <path class="fil4" d="M12539 11561l-1225 1c6,46 575,1048 656,1186l84 146c21,38 87,152 110,170 37,-19 108,-130 133,-167l41 -60c4,-6 9,-16 14,-26l36 -72c154,-363 289,-788 151,-1178z"/>
   <path class="fil5" d="M10305 13568l602 -1058c-39,-18 -1137,-4 -1282,-4 -72,0 -339,-8 -378,10 36,337 641,1009 1058,1052z"/>
   <path class="fil6" d="M11484 10354l-606 1056c39,18 1137,8 1282,9l154 2c39,0 158,2 184,-10 2,-40 -52,-159 -70,-199 -161,-371 -587,-745 -944,-858z"/>
   <path class="fil7" d="M9790 10629l614 1076c69,-44 697,-1170 831,-1429 -146,-59 -502,-61 -825,22 -292,74 -558,225 -620,331z"/>
  </g>
 </g>
</svg>
