<?xml version="1.0" encoding="UTF-8" standalone="no"?>
<!-- Creator: CorelDRAW X8 -->

<svg
   xmlns:dc="http://purl.org/dc/elements/1.1/"
   xmlns:cc="http://creativecommons.org/ns#"
   xmlns:rdf="http://www.w3.org/1999/02/22-rdf-syntax-ns#"
   xmlns:svg="http://www.w3.org/2000/svg"
   xmlns="http://www.w3.org/2000/svg"
   xmlns:sodipodi="http://sodipodi.sourceforge.net/DTD/sodipodi-0.dtd"
   xmlns:inkscape="http://www.inkscape.org/namespaces/inkscape"
   xml:space="preserve"
   width="100.7mm"
   height="101.52mm"
   version="1.1"
   style="clip-rule:evenodd;fill-rule:evenodd;image-rendering:optimizeQuality;shape-rendering:geometricPrecision;text-rendering:geometricPrecision"
   viewBox="0 0 10070 10152"
   id="svg27"
   sodipodi:docname="logo_icono.svg"
   inkscape:version="0.92.3 (2405546, 2018-03-11)"><metadata
   id="metadata31"><rdf:RDF><cc:Work
       rdf:about=""><dc:format>image/svg+xml</dc:format><dc:type
         rdf:resource="http://purl.org/dc/dcmitype/StillImage" /><dc:title></dc:title></cc:Work></rdf:RDF></metadata><sodipodi:namedview
   pagecolor="#ffffff"
   bordercolor="#666666"
   borderopacity="1"
   objecttolerance="10"
   gridtolerance="10"
   guidetolerance="10"
   inkscape:pageopacity="0"
   inkscape:pageshadow="2"
   inkscape:window-width="1362"
   inkscape:window-height="700"
   id="namedview29"
   showgrid="false"
   inkscape:zoom="0.84096521"
   inkscape:cx="409.23563"
   inkscape:cy="178.27527"
   inkscape:window-x="0"
   inkscape:window-y="0"
   inkscape:window-maximized="1"
   inkscape:current-layer="svg27" />
 <defs
   id="defs4">
  <style
   type="text/css"
   id="style2">
   <![CDATA[
    .fil1 {fill:#FEFEFE}
    .fil0 {fill:black}
    .fil6 {fill:#008EE9}
    .fil7 {fill:#00E5A5}
    .fil4 {fill:#AB35E2}
    .fil3 {fill:#F055D5}
    .fil5 {fill:#FF6943}
    .fil2 {fill:#FFAD44}
   ]]>
  </style>
 </defs>
 <g
   id="Capa_x0020_1"
   transform="translate(-5868,-7458)">
  <metadata
   id="CorelCorpID_0Corel-Layer" />
  <rect
   class="fil0"
   x="5895"
   y="7504"
   width="9999"
   height="9999"
   id="rect7"
   style="fill:#000000" />
  <ellipse
   class="fil1"
   cx="10903"
   cy="12534"
   rx="5035"
   ry="5076"
   id="ellipse9"
   style="fill:#fefefe" />
  <path
   class="fil0"
   d="m 6662,13636 1303,-774 c -113,-323 -175,-671 -175,-1034 0,-1710 1366,-3096 3051,-3096 1686,0 3052,1386 3052,3096 0,414 -80,808 -225,1169 l 1337,637 -431,732 -1258,-727 c -157,221 -342,420 -550,591 l 731,1232 -741,423 -691,-1221 c -260,116 -540,196 -832,234 l 19,1411 -819,4 2,-1417 c -284,-38 -555,-116 -809,-228 l -701,1215 -734,-413 726,-1240 c -207,-171 -392,-369 -549,-588 l -1266,744 z m 4206,-4110 c 1262,0 2284,1038 2284,2318 0,1279 -1022,2317 -2284,2317 -1262,0 -2284,-1038 -2284,-2317 0,-1280 1022,-2318 2284,-2318 z"
   id="path11"
   inkscape:connector-curvature="0"
   style="fill:#000000" />
  <g
   id="_2357761337264">
   <path
   class="fil2"
   d="m 9197,12316 c 1,1 1246,19 1276,13 2,-10 -856,-1523 -863,-1528 -459,454 -525,1044 -413,1515 z"
   id="path13"
   inkscape:connector-curvature="0"
   style="fill:#ffad44" />
   <path
   class="fil3"
   d="m 11995,13262 -144,-258 c -49,-87 -101,-174 -150,-260 -53,-94 -97,-171 -149,-263 -29,-53 -123,-237 -160,-261 -32,17 -71,100 -100,151 l -285,495 c -135,226 -286,513 -420,732 -25,40 -38,46 23,56 486,81 1045,-81 1385,-392 z"
   id="path15"
   inkscape:connector-curvature="0"
   style="fill:#f055d5" />
   <path
   class="fil4"
   d="m 12539,11561 -1225,1 c 6,46 575,1048 656,1186 l 84,146 c 21,38 87,152 110,170 37,-19 108,-130 133,-167 l 41,-60 c 4,-6 9,-16 14,-26 l 36,-72 c 154,-363 289,-788 151,-1178 z"
   id="path17"
   inkscape:connector-curvature="0"
   style="fill:#ab35e2" />
   <path
   class="fil5"
   d="m 10305,13568 602,-1058 c -39,-18 -1137,-4 -1282,-4 -72,0 -339,-8 -378,10 36,337 641,1009 1058,1052 z"
   id="path19"
   inkscape:connector-curvature="0"
   style="fill:#ff6943" />
   <path
   class="fil6"
   d="m 11484,10354 -606,1056 c 39,18 1137,8 1282,9 l 154,2 c 39,0 158,2 184,-10 2,-40 -52,-159 -70,-199 -161,-371 -587,-745 -944,-858 z"
   id="path21"
   inkscape:connector-curvature="0"
   style="fill:#008ee9" />
   <path
   class="fil7"
   d="m 9790,10629 614,1076 c 69,-44 697,-1170 831,-1429 -146,-59 -502,-61 -825,22 -292,74 -558,225 -620,331 z"
   id="path23"
   inkscape:connector-curvature="0"
   style="fill:#00e5a5" />
  </g>
 </g>
</svg>